<svg width="975" height="1080" viewBox="0 0 975 1080" fill="none" xmlns="http://www.w3.org/2000/svg">
<rect width="975" height="1080" fill="white"/>
<path d="M450.816 526.994H548.952V271.752H100.528V403.776" fill="white"/>
<path d="M450.816 526.994H548.952V271.752H100.528V403.776" stroke="#1D2815" stroke-miterlimit="10" stroke-linecap="round"/>
<mask id="mask0_5_28" style="mask-type:luminance" maskUnits="userSpaceOnUse" x="100" y="328" width="470" height="199">
<path d="M569.408 329.455V525.667L100.618 525.667V329.455L569.408 329.455Z" fill="white" stroke="white"/>
</mask>
<g mask="url(#mask0_5_28)">
<path d="M175.24 380.141L175.24 527.328H123.462L123.462 380.141H175.24Z" fill="white" stroke="black"/>
<path d="M251.475 406.814L251.475 527.328H208.493V406.814H251.475Z" fill="white" stroke="black"/>
<path d="M192.833 432.501V527.328H143.01V432.501H192.833Z" fill="white" stroke="black"/>
<path d="M277.864 437.44V527.328H241.724V437.44H277.864Z" fill="white" stroke="black"/>
<path d="M357.031 473.993V527.329H160.602V473.993H357.031Z" fill="white" stroke="black"/>
<path d="M387.329 496.715V527.328H341.415V496.715H387.329Z" fill="white" stroke="black"/>
<path d="M334.016 467.377V478.717H296.173V467.377H334.016Z" fill="white" stroke="black"/>
<path d="M244.123 391.658V414.215H216.268V391.658H244.123Z" fill="white" stroke="black"/>
<path d="M174.252 339.974V400.76H139.255V339.974H174.252Z" fill="white" stroke="black"/>
<path d="M233.33 356.4V394.77H227.375V356.4H233.33Z" fill="white" stroke="black"/>
<path d="M135.526 408.386L135.526 528.309H100.273L100.273 408.386H135.526Z" fill="white" stroke="black"/>
<path d="M448.434 519.502V527.57H381.432V519.502H448.434Z" fill="white" stroke="black"/>
<path d="M413.96 508.522V524.228H400.321V508.522H413.96Z" fill="white" stroke="black"/>
</g>
<path d="M251.735 437.372V459.193" stroke="#1D2815" stroke-miterlimit="10" stroke-linecap="round"/>
<path d="M138.665 377.2V407.886" stroke="#1D2815" stroke-miterlimit="10" stroke-linecap="round"/>
<path d="M336.373 471.756V496.215" stroke="#1D2815" stroke-miterlimit="10" stroke-linecap="round"/>
<path d="M395.143 658.368H100.384" stroke="#1D2815" stroke-miterlimit="10" stroke-linecap="round"/>
<path d="M100 934L100 213" stroke="#1D2815" stroke-miterlimit="10" stroke-linecap="round"/>
<path d="M781.536 741.633H34.1959" stroke="#1D2815" stroke-miterlimit="10" stroke-linecap="round"/>
<path d="M511.044 865.936C691.538 865.936 837.858 854.459 837.858 840.301C837.858 826.144 691.538 814.666 511.044 814.666C330.549 814.666 184.229 826.144 184.229 840.301C184.229 854.459 330.549 865.936 511.044 865.936Z" fill="#E3FECE"/>
<path d="M269.041 820.552C269.041 820.552 296.537 844.351 350.34 842.643C404.143 840.935 469.936 834.491 486.318 846.6C500.931 857.4 476.789 867.566 476.789 867.566" stroke="white" stroke-miterlimit="10"/>
<path d="M197.587 597.624L197.674 598.117L197.733 598.106L197.787 598.082L197.587 597.624ZM197.587 597.624C197.674 598.117 197.674 598.117 197.674 598.117L197.673 598.117L197.669 598.118L197.653 598.12L197.593 598.131L197.357 598.173C197.151 598.209 196.849 598.262 196.464 598.33C195.693 598.464 194.593 598.656 193.271 598.883C190.629 599.338 187.101 599.936 183.564 600.508C180.029 601.08 176.479 601.627 173.792 601.979C172.451 602.155 171.316 602.284 170.504 602.342C170.1 602.371 169.76 602.384 169.51 602.374C169.388 602.37 169.262 602.359 169.153 602.333C169.1 602.32 169.025 602.298 168.951 602.256C168.881 602.217 168.753 602.127 168.691 601.954C168.264 600.764 168.032 598.812 167.863 596.362C167.737 594.534 167.645 592.387 167.543 590.009C167.507 589.177 167.47 588.316 167.43 587.432C167.121 580.591 166.625 572.238 165.085 563.892C161.998 547.167 154.759 530.684 136.654 526.303L136.64 526.299L136.625 526.295L136.625 526.295L136.625 526.295L136.621 526.294L136.606 526.289C136.593 526.285 136.571 526.279 136.543 526.27C136.485 526.254 136.399 526.23 136.285 526.2C136.058 526.139 135.722 526.055 135.292 525.961C134.432 525.772 133.198 525.544 131.707 525.388C128.723 525.076 124.733 525.057 120.674 526.209C116.623 527.359 112.502 529.677 109.23 534.05C105.955 538.427 103.502 544.901 102.859 554.412L102.859 554.412C101.982 567.334 105.655 582.985 110.915 598.053C116.17 613.108 122.99 627.528 128.363 637.97C129.201 639.597 130.071 641.211 130.942 642.773L130.506 643.017L130.942 642.773C135.861 651.599 145.128 657.113 155.228 657.164C165.225 657.214 178.495 657.088 190.778 656.354C203.089 655.618 214.326 654.276 220.312 651.926L220.33 651.919L220.349 651.913L256.704 640.881L256.839 640.84L256.975 640.875L256.849 641.359C256.975 640.875 256.975 640.875 256.976 640.876L256.978 640.876L256.987 640.878L257.022 640.888L257.165 640.924C257.291 640.956 257.479 641.005 257.728 641.067C258.225 641.192 258.962 641.376 259.921 641.609C261.841 642.076 264.65 642.742 268.207 643.538C275.321 645.129 285.426 647.24 297.387 649.314C321.314 653.464 352.649 657.468 382.323 656.897C385.779 656.83 389.072 656.898 392.187 656.962C393.624 656.991 395.023 657.02 396.383 657.034C400.593 657.078 404.437 656.987 407.954 656.373L432.204 592.252C432.184 592.224 432.161 592.193 432.134 592.159C431.997 591.986 431.758 591.741 431.368 591.492C430.59 590.997 429.177 590.468 426.702 590.529C421.729 590.651 412.574 593.15 396.026 602.846L396.025 602.847C393.062 604.575 388.299 605.094 382.419 604.799L382.418 604.799C371.06 604.216 355.147 600.56 338.881 595.969C322.604 591.374 305.933 585.83 293.044 581.452L293.044 581.452C285.029 578.727 275.079 578.382 264.625 579.423C254.178 580.462 243.27 582.88 233.362 585.646C223.456 588.411 214.56 591.521 208.14 593.94C204.931 595.149 202.341 596.186 200.554 596.919C199.661 597.286 198.968 597.577 198.5 597.776C198.265 597.876 198.087 597.953 197.967 598.004L197.832 598.063L197.798 598.078L197.79 598.081L197.788 598.082C197.787 598.082 197.787 598.082 197.587 597.624Z" fill="white" stroke="black"/>
<path d="M431.344 592.206L407.908 657.616C400.625 658.951 387.68 658.069 380.005 658.56C384.814 645.349 382.955 617.332 381.031 604.298C386.9 604.592 392.261 602.728 395.088 601.079C428.223 581.665 431.344 592.206 431.344 592.206Z" fill="#1D2815"/>
<path d="M101.536 545.191L101.536 545.191C101.608 536.25 103.856 530.381 107.122 526.577C110.387 522.773 114.724 520.972 119.092 520.271C123.465 519.569 127.844 519.975 131.141 520.561C132.788 520.854 134.158 521.192 135.116 521.455C135.594 521.587 135.97 521.7 136.224 521.78C136.351 521.82 136.448 521.851 136.513 521.873C136.545 521.883 136.569 521.892 136.585 521.897L136.603 521.903L136.607 521.904L136.608 521.905L136.631 521.913L136.654 521.918C148.954 524.895 159.569 532.686 168.023 542.384C172.571 547.601 173.911 553.101 174.562 558.062C174.72 559.266 174.837 560.436 174.95 561.565L174.961 561.674C175.077 562.834 175.19 563.955 175.34 565.011C175.64 567.116 176.094 569.028 177.062 570.57L177.485 570.304L177.062 570.57C181.668 577.91 186.239 582.307 189.845 585.395C190.62 586.059 191.34 586.654 192.004 587.202C192.897 587.94 193.688 588.593 194.374 589.218C195.452 590.197 196.181 591.029 196.558 591.87C186.001 604.213 158.81 627.395 122.272 637.179C116.984 626.761 111.775 610.372 107.898 593.317C103.977 576.067 101.432 558.191 101.536 545.191Z" fill="white" stroke="black"/>
<path d="M195.724 596.97C194.169 596.97 192.736 595.955 192.272 594.39C191.708 592.482 192.797 590.479 194.704 589.914L251.481 573.125L265.1 521.733C265.609 519.81 267.588 518.661 269.503 519.174C271.426 519.683 272.572 521.656 272.062 523.578L257.407 578.884L196.748 596.822C196.405 596.921 196.062 596.97 195.724 596.97Z" fill="#1D2815"/>
<path d="M153.961 483.726C148.513 479.891 138.077 481.139 132.9 488.075C129.706 492.354 127.808 499.64 129.455 504.729L121.532 521.571C121.532 521.571 134.906 526.735 144.72 524.017C144.72 524.017 143.46 519.747 145.248 515.768C146.631 516.146 148.009 516.153 149.211 515.472C153.899 512.818 154.994 506.518 154.994 506.518C154.994 506.518 157.458 507.527 157.987 506.79C158.517 506.054 156.764 502.312 157.75 499.424C158.736 496.535 159.409 487.56 153.961 483.726Z" fill="white" stroke="#1D2815" stroke-miterlimit="10" stroke-linecap="round"/>
<path d="M129.655 507.964C128.607 509.475 126.284 508.764 126.219 506.926C126.166 505.431 125.896 503.582 125.267 501.312C122.781 492.335 127.398 475.911 143.551 475.281C157.615 474.733 161.19 485.633 158.716 489.277C158.181 490.064 156.036 489.259 155.2 488.807C152.624 487.416 145.472 484.199 137.471 486.232C136.734 486.419 136.206 487.063 136.119 487.817C135.719 491.301 134.212 501.394 129.655 507.964Z" fill="#1D2815"/>
<path d="M142.233 500.018C142.233 500.018 142.659 494.841 138.604 495.281C134.549 495.721 135.203 503.92 138.283 503.992C141.364 504.064 142.233 500.018 142.233 500.018Z" fill="white"/>
<path d="M140.765 500.521C140.765 500.521 141.436 497.297 138.186 497.665L140.765 500.521Z" fill="white"/>
<path d="M140.765 500.521C140.765 500.521 141.436 497.297 138.186 497.665" stroke="#1D2815" stroke-miterlimit="10" stroke-linecap="round"/>
<path d="M152.787 500.953C152.824 501.67 153.145 502.237 153.504 502.218C153.862 502.2 154.124 501.604 154.087 500.886C154.05 500.168 153.729 499.602 153.37 499.62C153.011 499.639 152.75 500.235 152.787 500.953Z" fill="#1D2815"/>
<path d="M151.673 498.323C151.673 498.323 152.787 497.948 154.244 498.055C155.699 498.161 155.427 496.407 153.495 496.733C151.563 497.06 150.998 498.403 151.673 498.323Z" fill="#1D2815"/>
<path d="M145.645 515.43C145.645 515.43 139.613 513.17 139.197 513.995C138.781 514.819 143.424 521.406 144.413 520.347C144.51 520.243 144.276 517.043 145.645 515.43Z" fill="#1D2815"/>
<path d="M151.232 510.357C151.232 510.357 151.632 511.596 152.813 511.703L151.232 510.357Z" fill="white"/>
<path d="M151.232 510.357C151.232 510.357 151.632 511.596 152.813 511.703" stroke="#1D2815" stroke-miterlimit="10" stroke-linecap="round"/>
<path d="M237.969 560.792C237.969 560.792 230.413 555.877 223.191 556.443C226.268 554.523 230.405 551.903 230.435 551.126C230.479 550.049 226.794 550.179 221.876 551.671C219.564 552.374 216.728 554.857 214.369 557.291C212.767 558.947 210.866 560.265 208.806 561.241C206.07 562.537 203.616 563.733 203.27 564.01C184.476 572.213 167.689 581.428 167.689 581.428C151.067 557.789 140.371 550.125 140.371 550.125L114.014 561.942C114.014 561.942 133.839 615.11 155.995 620.948C178.15 626.788 214.666 583.579 214.666 583.579C214.666 583.579 223.394 573.271 229.063 571.984C234.733 570.699 238.264 568.88 236.395 568.093C234.527 567.305 231.337 566.611 231.337 566.611C231.337 566.611 237.259 566.999 236.603 565.387C236.033 563.981 232.435 562.709 231.519 562.405C231.489 562.395 231.497 562.349 231.529 562.351C232.896 562.438 240.045 562.803 237.969 560.792Z" fill="white" stroke="#1D2815" stroke-miterlimit="10" stroke-linecap="round"/>
<path d="M120.813 531.198C120.813 531.198 95.1411 534.028 116.804 581.368C116.637 581.772 141.182 574.223 160.986 561.644C160.986 561.644 140.401 528.234 120.813 531.198Z" fill="white" stroke="#1D2815" stroke-miterlimit="10" stroke-linecap="round"/>
<path d="M160.789 586.137C160.789 586.137 165.313 582.492 167.69 581.428L160.789 586.137Z" fill="white"/>
<path d="M160.789 586.137C160.789 586.137 165.313 582.492 167.69 581.428" stroke="#1D2815" stroke-miterlimit="10" stroke-linecap="round"/>
<path d="M231.529 562.352C231.529 562.352 225.604 559.354 218.78 563.162L231.529 562.352Z" fill="white"/>
<path d="M231.529 562.352C231.529 562.352 225.604 559.354 218.78 563.162" stroke="#1D2815" stroke-miterlimit="10" stroke-linecap="round"/>
<path d="M231.338 566.612C231.338 566.612 225.83 565.822 221.188 568.07L231.338 566.612Z" fill="white"/>
<path d="M231.338 566.612C231.338 566.612 225.83 565.822 221.188 568.07" stroke="#1D2815" stroke-miterlimit="10" stroke-linecap="round"/>
<path d="M223.19 556.443C223.19 556.443 220.305 556.734 216.764 560.23L223.19 556.443Z" fill="white"/>
<path d="M223.19 556.443C223.19 556.443 220.305 556.734 216.764 560.23" stroke="#1D2815" stroke-miterlimit="10" stroke-linecap="round"/>
<path d="M123.939 584.328C123.939 584.328 142.293 575.93 155.668 565.665L155.269 565.497C155.269 565.497 128.513 578.764 121.87 579.954L123.939 584.328Z" fill="#1D2815"/>
<path d="M260.853 723.702L260.853 723.702C262.774 729.055 264.475 733.452 265.695 736.509C266.305 738.038 266.795 739.232 267.132 740.044C267.301 740.449 267.431 740.759 267.519 740.968C267.521 740.972 267.523 740.976 267.524 740.98H348.007C347.595 740.59 347.056 740.078 346.411 739.463C344.844 737.965 342.653 735.853 340.164 733.394C335.188 728.479 329.008 722.172 324.214 716.621M260.853 723.702L324.593 716.294M260.853 723.702C253.925 704.45 244.155 672.91 243.509 646.79L243.495 646.22L242.931 646.309L243.009 646.803M260.853 723.702L243.009 646.803M324.214 716.621L324.593 716.294M324.214 716.621C324.214 716.621 324.214 716.621 324.215 716.621L324.593 716.294M324.214 716.621C323.481 715.772 322.731 714.459 321.96 712.791C321.185 711.115 320.375 709.048 319.528 706.666L319.528 706.664C316.537 698.156 313.113 685.451 309.405 671.692C306.973 662.667 304.418 653.188 301.783 644.143C298.452 632.706 294.992 621.953 291.481 613.634C289.725 609.473 287.963 605.937 286.207 603.234C284.442 600.517 282.721 598.703 281.07 597.903L281.07 597.902C277.024 595.939 271.645 595.369 265.773 595.626C259.911 595.883 253.616 596.962 247.774 598.25C242.66 599.378 237.907 600.662 234.106 601.689C233.566 601.835 233.046 601.975 232.546 602.11C230.542 602.648 228.864 603.087 227.638 603.343C227.027 603.471 226.509 603.558 226.111 603.586C225.913 603.6 225.724 603.601 225.559 603.578C225.511 603.572 225.456 603.562 225.397 603.546M324.593 716.294C323.219 714.704 321.687 711.249 319.999 706.498C317.014 698.004 313.6 685.335 309.897 671.595C301.328 639.798 291.212 602.264 281.288 597.453C269.335 591.653 246.455 597.835 233.975 601.206C229.096 602.525 225.806 603.414 225.381 602.989M225.397 603.546L225.615 603.43L225.381 602.989M225.397 603.546L137.756 649.988C139.636 651.095 142.411 651.936 145.906 652.534C149.846 653.209 154.64 653.566 159.974 653.682C170.639 653.912 183.41 653.171 195.706 652.078C207.999 650.986 219.806 649.544 228.541 648.374C232.908 647.789 236.506 647.273 239.012 646.903C240.266 646.718 241.246 646.569 241.912 646.467C242.246 646.416 242.5 646.376 242.672 646.35L242.866 646.319L242.915 646.311L242.927 646.31L242.93 646.309C242.931 646.309 242.931 646.309 243.009 646.803M225.397 603.546C225.275 603.513 225.139 603.454 225.028 603.342L225.381 602.989M225.381 602.989L137.268 649.681L243.009 646.803" fill="white" stroke="black"/>
<path d="M349.268 741.479H267.194C267.194 741.479 264.23 734.589 260.382 723.871C272.965 723.753 303.45 721.574 319.999 706.498C321.687 711.248 323.219 714.704 324.593 716.294C334.153 727.365 349.268 741.479 349.268 741.479Z" fill="#1D2815"/>
<path d="M303.468 645.438C303.468 645.438 296.911 604.344 290.791 597.35C276.895 581.469 212.54 601.284 205.107 602.596" stroke="#1D2815" stroke-miterlimit="10" stroke-linecap="round"/>
<path d="M130.42 481.354C130.42 481.354 120.201 482.006 119.983 492.879C119.765 503.751 123.592 514.28 114.375 518.777C97.4324 527.043 98.2382 545.283 107.666 553.26C121.167 564.684 128.02 549.486 132.824 543.586C134.503 541.525 137.17 540.101 142.089 540.484C148.593 540.989 151.708 533.805 144.67 528.866C134.159 521.49 146.277 518.177 145.408 506C144.538 493.823 144.118 490.703 157.6 489.399C157.6 489.399 152.817 468.743 130.42 481.354Z" fill="#1D2815"/>
<path d="M123.462 494.752C123.462 494.752 98.0214 498.884 110.633 519.975C123.245 541.067 130.42 506.712 123.462 494.752Z" fill="#1D2815"/>
<path d="M257.353 714.493C258.376 714.152 290.451 717.905 317.067 695.385" stroke="white" stroke-miterlimit="10"/>
<path d="M105.765 532.773C105.765 532.773 96.9092 521.647 113.94 513.926" stroke="#1D2815" stroke-miterlimit="10" stroke-linecap="round"/>
<path d="M513.663 571.874V190.5H564.8V571.874H513.663Z" fill="white" stroke="black"/>
<path d="M659.061 413.626C631.529 435.649 633.361 463.907 633.361 463.907C630.423 466.431 627.887 468.056 625.721 469.001C624.949 457.408 625.629 437.863 635.447 419.343C639.884 410.976 646.304 397.827 651.362 387.283C650.395 391.201 651.377 387.365 651.377 387.365C663.489 381.13 686.592 391.603 659.061 413.626Z" fill="#E3FECE"/>
<path d="M653.747 372.756C653.262 380.357 651.148 387.763 647.825 394.618C643.548 403.435 638.899 412.836 635.448 419.342C625.629 437.862 624.949 457.407 625.722 469C623.936 469.784 622.402 470.107 621.066 470.107C617.909 470.107 615.915 468.275 614.682 466.269C613.172 463.825 612.792 461.117 612.792 461.117C597.361 419.053 608.044 356.741 636.671 351.97C651.7 349.467 654.49 361.12 653.747 372.756Z" fill="white" stroke="#1D2815" stroke-miterlimit="10" stroke-linecap="round"/>
<path d="M651.607 357.488C651.607 357.488 639.634 368.286 643.752 372.19C646.594 374.884 653.757 368.323 653.757 368.323" stroke="#1D2815" stroke-miterlimit="10" stroke-linecap="round"/>
<path d="M605.721 422.255C605.721 422.255 609.683 427.184 611.73 424.755C614.069 421.978 606.292 408.643 606.292 408.643" stroke="#1D2815" stroke-miterlimit="10" stroke-linecap="round"/>
<path d="M635.765 365.264C635.765 365.264 610.517 412.847 619.257 462.048" stroke="#1D2815" stroke-miterlimit="10" stroke-linecap="round"/>
<path d="M641.124 486.494H607.993V465.919C607.993 463.267 610.143 461.117 612.795 461.117H636.323C638.975 461.117 641.125 463.267 641.125 465.919L641.124 486.494Z" fill="white" stroke="#1D2815" stroke-miterlimit="10" stroke-linecap="round"/>
<path d="M502.563 272.36C502.563 277.667 506.866 281.97 512.173 281.97C517.48 281.97 521.783 277.667 521.783 272.36C521.783 267.052 517.48 262.75 512.173 262.75C506.866 262.75 502.563 267.052 502.563 272.36Z" fill="white" stroke="#1D2815" stroke-miterlimit="10" stroke-linecap="round"/>
<path d="M512.616 262.883V190.322" stroke="#1D2815" stroke-miterlimit="10" stroke-linecap="round"/>
<path d="M516.913 226.454H507.992C505.552 226.454 503.575 228.432 503.575 230.871V251.776C503.575 254.216 505.552 256.193 507.992 256.193H516.913C519.353 256.193 521.33 254.216 521.33 251.776V230.871C521.33 228.432 519.353 226.454 516.913 226.454Z" fill="white" stroke="#1D2815" stroke-miterlimit="10" stroke-linecap="round"/>
<path d="M542.634 272.394H480.512C482.549 262.648 495.675 249.764 511.57 249.764C527.464 249.764 540.598 262.648 542.634 272.394Z" fill="#1D2815"/>
<path d="M633.259 272.36C633.259 277.667 637.561 281.97 642.869 281.97C648.176 281.97 652.479 277.667 652.479 272.36C652.479 267.052 648.176 262.75 642.869 262.75C637.561 262.75 633.259 267.052 633.259 272.36Z" fill="white" stroke="#1D2815" stroke-miterlimit="10" stroke-linecap="round"/>
<path d="M643.312 262.883V190.322" stroke="#1D2815" stroke-miterlimit="10" stroke-linecap="round"/>
<path d="M647.609 226.454H638.688C636.248 226.454 634.271 228.432 634.271 230.871V251.776C634.271 254.216 636.248 256.193 638.688 256.193H647.609C650.048 256.193 652.026 254.216 652.026 251.776V230.871C652.026 228.432 650.049 226.454 647.609 226.454Z" fill="white" stroke="#1D2815" stroke-miterlimit="10" stroke-linecap="round"/>
<path d="M673.33 272.394H611.208C613.245 262.648 626.371 249.764 642.265 249.764C658.16 249.764 671.294 262.648 673.33 272.394Z" fill="#1D2815"/>
<path d="M763.199 272.36C763.199 277.667 767.502 281.97 772.809 281.97C778.117 281.97 782.419 277.667 782.419 272.36C782.419 267.052 778.117 262.75 772.809 262.75C767.502 262.75 763.199 267.052 763.199 272.36Z" fill="white" stroke="#1D2815" stroke-miterlimit="10" stroke-linecap="round"/>
<path d="M773.253 262.883V190.322" stroke="#1D2815" stroke-miterlimit="10" stroke-linecap="round"/>
<path d="M777.55 226.454H768.629C766.189 226.454 764.212 228.432 764.212 230.871V251.776C764.212 254.216 766.189 256.193 768.629 256.193H777.55C779.989 256.193 781.967 254.216 781.967 251.776V230.871C781.967 228.432 779.989 226.454 777.55 226.454Z" fill="white" stroke="#1D2815" stroke-miterlimit="10" stroke-linecap="round"/>
<path d="M803.272 272.394H741.15C743.186 262.648 756.313 249.764 772.207 249.764C788.1 249.764 801.234 262.648 803.272 272.394Z" fill="#1D2815"/>
<path d="M802.235 356.924C773.988 358.73 775.578 389.432 760.816 392.455C751.511 394.379 748.332 405.43 747.409 415.246" fill="white"/>
<path d="M802.235 356.924C773.988 358.73 775.578 389.432 760.816 392.455C751.511 394.379 748.332 405.43 747.409 415.246" stroke="#1D2815" stroke-miterlimit="10" stroke-linecap="round"/>
<path d="M747.408 415.246H727.032V340.022H802.236V356.924" fill="white"/>
<path d="M747.408 415.246H727.032V340.022H802.236V356.924" stroke="#1D2815" stroke-miterlimit="10" stroke-linecap="round"/>
<path d="M802.235 356.924V415.246H747.409C748.332 405.43 751.511 394.379 760.816 392.455C775.578 389.432 773.988 358.73 802.235 356.924Z" fill="#E3FECE"/>
<path d="M784.963 373.886C788.839 373.886 791.98 370.744 791.98 366.869C791.98 362.993 788.839 359.852 784.963 359.852C781.088 359.852 777.946 362.993 777.946 366.869C777.946 370.744 781.088 373.886 784.963 373.886Z" fill="#90C865"/>
<path d="M488.002 561.585H373.896V766.533H488.002V561.585Z" stroke="#1D2815" stroke-miterlimit="10" stroke-linecap="round"/>
<path d="M468.881 560.852H354.775V766.522H468.881V560.852Z" stroke="#1D2815" stroke-miterlimit="10" stroke-linecap="round"/>
<path d="M499.635 578.577H365.588C354.269 578.577 345.093 569.401 345.093 558.082C345.093 546.763 354.269 537.587 365.588 537.587H499.635C510.953 537.587 520.129 546.763 520.129 558.082C520.129 569.401 510.953 578.577 499.635 578.577Z" fill="#1D2815"/>
<path d="M487.435 711.014H354.905" stroke="#1D2815" stroke-miterlimit="10" stroke-linecap="round"/>
<path d="M455.925 491.794C455.692 492.236 455.691 492.236 455.691 492.236L455.69 492.235L455.685 492.232L455.662 492.22L455.572 492.173C455.491 492.132 455.371 492.07 455.213 491.989C454.896 491.829 454.429 491.595 453.824 491.302C452.616 490.716 450.862 489.894 448.686 488.955C444.332 487.075 438.292 484.723 431.542 482.835C424.79 480.947 417.345 479.527 410.176 479.499C403.006 479.47 396.148 480.834 390.534 484.478L390.534 484.479C383.432 489.085 378.246 497.405 377 511.487C375.71 526.083 379.642 536.585 386.226 544.156C392.823 551.741 402.121 556.427 411.63 559.296C421.135 562.164 430.811 563.205 438.119 563.528C441.771 563.689 444.827 563.671 446.969 563.612C448.04 563.583 448.882 563.543 449.456 563.511C449.742 563.495 449.962 563.481 450.109 563.471C450.151 563.468 450.187 563.466 450.216 563.464C450.24 563.462 450.26 563.46 450.276 563.459L450.317 563.456L450.327 563.455L450.33 563.455C450.33 563.455 450.33 563.455 450.37 563.953L450.33 563.455L451.308 563.376L450.797 564.214C422.663 610.34 419.993 661.263 421.169 689.212C421.453 695.824 421.952 701.146 422.381 704.813C422.595 706.647 422.791 708.067 422.934 709.027C423 709.478 423.056 709.828 423.095 710.071H501.678C501.68 710.071 501.682 710.07 501.684 710.069C501.724 710.057 501.785 710.037 501.858 710.007C502.005 709.945 502.191 709.847 502.36 709.698C502.526 709.551 502.675 709.358 502.761 709.1C502.846 708.842 502.88 708.489 502.771 708.004C502.548 707.016 501.738 705.525 499.674 703.355C497.619 701.195 494.361 698.401 489.32 694.804L489.32 694.804C481.19 688.985 478.554 682.425 478.373 676.568C478.222 672.128 479.492 668.144 480.79 665.28C481.439 663.846 482.099 662.687 482.596 661.885C482.845 661.483 483.054 661.171 483.202 660.958C483.276 660.851 483.334 660.769 483.375 660.714C483.395 660.686 483.411 660.664 483.422 660.649L483.435 660.632L483.438 660.627L483.439 660.626L483.44 660.625C483.44 660.625 483.44 660.625 483.839 660.927L483.44 660.625L483.448 660.615L483.456 660.605C498.715 642.478 514.974 614.017 523.634 586.049C527.964 572.067 530.386 558.233 529.848 545.891C529.311 533.551 525.816 522.737 518.35 514.738C508.847 504.566 493.275 498.942 480.001 495.868C473.375 494.333 467.347 493.439 462.976 492.929C460.79 492.674 459.019 492.515 457.796 492.42C457.184 492.372 456.71 492.34 456.388 492.321C456.228 492.311 456.106 492.304 456.024 492.299L455.932 492.295L455.909 492.293L455.903 492.293L455.902 492.293C455.902 492.293 455.902 492.293 455.925 491.794ZM455.925 491.794L455.692 492.236L455.79 492.288L455.902 492.293L455.925 491.794Z" fill="white" stroke="black"/>
<path d="M350.217 511.442C346.114 557.789 394.286 563.717 414.937 564.13L350.217 511.442ZM350.217 511.442C352.847 481.683 371.986 479.21 390.262 484.058L350.217 511.442ZM419.892 572.259L419.892 572.259C421.968 568.428 419.339 563.716 414.947 563.63C404.644 563.424 387.532 561.841 373.525 554.568C366.529 550.935 360.326 545.893 356.123 538.911C351.922 531.934 349.697 522.982 350.715 511.486L350.715 511.486C352.021 496.712 357.406 488.847 364.598 485.219C371.831 481.57 381.036 482.128 390.134 484.541L390.135 484.542C405.127 488.466 419.556 497.377 423.753 500.083C424.639 500.666 425.65 500.965 426.674 501.008L426.675 501.008C430.447 501.165 441.14 501.84 453.126 504.649C465.125 507.462 478.347 512.397 487.24 521.027C492.147 525.796 494.701 534.577 495.222 545.776C495.741 556.948 494.233 570.412 491.137 584.418C484.941 612.439 472.412 642.51 457.191 660.604L457.183 660.613L457.175 660.623L457.574 660.926C457.175 660.623 457.175 660.624 457.175 660.624L457.175 660.624L457.173 660.626L457.169 660.632L457.154 660.651C457.142 660.669 457.123 660.694 457.099 660.726C457.052 660.792 456.984 660.888 456.898 661.012C456.726 661.261 456.485 661.626 456.2 662.093C455.63 663.028 454.888 664.374 454.19 666.029C452.798 669.334 451.575 673.9 452.309 678.88C453.057 684.113 455.986 689.745 463.054 694.802L463.054 694.802C468.09 698.4 471.345 701.193 473.397 703.354C475.458 705.525 476.267 707.015 476.488 708.004C476.597 708.488 476.563 708.842 476.477 709.099C476.391 709.358 476.242 709.551 476.075 709.697C475.906 709.846 475.72 709.945 475.573 710.007C475.5 710.037 475.44 710.057 475.399 710.069C475.397 710.07 475.395 710.071 475.393 710.071H401C398.567 710.071 396.519 708.241 396.216 705.819C395.649 701.201 394.904 693.366 394.708 683.256C394.218 656.211 397.787 613.024 419.892 572.259Z" fill="white" stroke="black"/>
<path d="M394.208 683.266C399.979 683.285 408.106 684.287 417.587 688.193C418.628 688.625 419.648 688.978 420.669 689.234C435.372 693.239 448.642 682.618 452.804 678.81C453.688 678.005 454.158 677.514 454.158 677.514C454.158 677.514 469.372 688.664 478.637 676.788C478.696 676.71 478.775 676.631 478.873 676.552C479.049 682.245 481.602 688.664 489.611 694.396C509.831 708.825 501.743 710.572 501.743 710.572H401.001C398.311 710.572 396.053 708.549 395.72 705.88C395.15 701.247 394.404 693.395 394.208 683.266Z" fill="white"/>
<path d="M394.208 683.662C399.979 683.682 408.106 684.683 417.587 688.589C418.628 689.021 419.648 689.374 420.669 689.63C435.372 693.635 448.642 683.014 452.804 679.206C453.688 678.401 454.158 677.91 454.158 677.91C454.158 677.91 469.372 689.06 478.637 677.184C478.696 677.106 478.775 677.027 478.873 676.948C479.049 682.641 481.602 689.06 489.611 694.792C509.831 709.221 501.743 710.968 501.743 710.968H401.001C398.311 710.968 396.053 708.945 395.72 706.276C395.15 701.643 394.404 693.79 394.208 683.662Z" fill="white" stroke="#1D2815" stroke-miterlimit="10" stroke-linecap="round"/>
<path d="M441.75 496.836C463.109 500.387 485.801 508.792 494.206 519.718C516.304 548.446 483.092 620.682 459.691 661.35C459.691 661.35 445.261 680.396 465.463 694.826C485.663 709.255 477.583 710.986 477.583 710.986" stroke="#1D2815" stroke-miterlimit="10" stroke-linecap="round"/>
<path d="M444.746 685.593C444.746 685.593 453.797 703.886 468.068 696.845C468.068 696.845 455.88 688.365 454.853 676.492C454.853 676.492 447.51 673.747 444.746 685.593Z" fill="#1D2815"/>
<path d="M471.648 682.64C471.648 682.64 475.001 700.489 488.609 694.277C488.609 694.277 480.981 688.794 479.475 675.751C479.475 675.751 471.352 672.483 471.648 682.64Z" fill="#1D2815"/>
<path d="M395.964 704.104H500.293" stroke="#1D2815" stroke-miterlimit="10" stroke-linecap="round"/>
<path d="M544.432 487.36C544.432 487.36 532.072 467.025 501.769 462.639C476.276 458.95 462.62 426.42 456.603 415.756C453.646 409.711 449.794 404.572 444.41 400.851C429.216 390.354 406.799 390.629 394.596 389.313C360.441 385.63 342.724 378.988 321.537 427.72C313.818 445.471 312.197 467.487 313.948 475.369C320.741 505.937 343.434 491.426 343.434 491.426C343.434 491.426 365.622 494.053 399.488 494.638C432.512 495.207 454.367 497.833 479.88 488.644C479.88 488.644 446.625 500.062 443.327 488.644L544.432 487.36Z" fill="white" stroke="#1D2815" stroke-miterlimit="10" stroke-linecap="round"/>
<path d="M429.24 482.033C429.24 482.033 439.254 478.028 438.665 485.45L429.24 482.033Z" fill="white"/>
<path d="M429.24 482.033C429.24 482.033 439.254 478.028 438.665 485.45" stroke="#1D2815" stroke-miterlimit="10" stroke-linecap="round"/>
<path d="M429.378 430.372C429.378 430.372 435.099 439.947 432.483 450.411C429.866 460.875 423.601 479.485 425.579 490.379" stroke="white" stroke-miterlimit="10" stroke-linecap="round"/>
<path d="M408.264 471.605C408.264 471.605 360.634 449.678 339.348 459.894L408.264 471.605Z" fill="white"/>
<path d="M408.264 471.605C408.264 471.605 360.634 449.678 339.348 459.894" stroke="#1D2815" stroke-miterlimit="10" stroke-linecap="round"/>
<path d="M367.228 435.482C367.228 435.482 360.171 441.272 356.28 456.392L367.228 435.482Z" fill="white"/>
<path d="M367.228 435.482C367.228 435.482 360.171 441.272 356.28 456.392" stroke="#1D2815" stroke-miterlimit="10" stroke-linecap="round"/>
<path d="M412.461 383.866C412.461 383.866 409.269 389.184 410.943 395.356C410.943 395.356 410.252 405.819 403.738 414.537C401.792 417.141 397.788 416.821 396.192 413.991C392.797 407.972 388.064 397.738 389.037 388.802C389.037 388.802 394.103 376.086 395.082 367.651C395.082 367.651 411.567 382.386 412.461 383.866Z" fill="white"/>
<path d="M397.989 489.352C397.989 489.352 398.784 475.042 408.722 471.464C408.722 471.464 424.535 471.605 436.89 467.387C449.243 463.169 455.872 487.273 455.872 487.273C455.872 487.273 453.639 489.708 448.341 484.418C447.3 483.379 445.545 484.393 445.89 485.823L446.531 488.478" fill="white"/>
<path d="M397.989 489.352C397.989 489.352 398.784 475.042 408.722 471.464C408.722 471.464 424.535 471.605 436.89 467.387C449.243 463.169 455.872 487.273 455.872 487.273C455.872 487.273 453.639 489.708 448.341 484.418C447.3 483.379 445.545 484.393 445.89 485.823L446.531 488.478" stroke="#1D2815" stroke-miterlimit="10" stroke-linecap="round"/>
<path d="M429.829 478.264C429.829 478.264 434.541 473.905 437.604 473.315C440.667 472.727 445.165 480.736 445.165 480.736" fill="white"/>
<path d="M429.829 478.264C429.829 478.264 434.541 473.905 437.604 473.315C440.667 472.727 445.165 480.736 445.165 480.736" stroke="#1D2815" stroke-miterlimit="10" stroke-linecap="round"/>
<path d="M478.678 486.97H577.086C578.664 486.97 579.994 485.796 580.189 484.231L587.784 423.469C588.017 421.603 586.562 419.954 584.682 419.954H486.273C484.696 419.954 483.366 421.128 483.17 422.693L475.575 483.455C475.341 485.321 476.796 486.97 478.678 486.97Z" fill="#1D2815"/>
<path d="M528.979 458.377C530.259 460.2 533.552 460.092 536.332 458.138C539.113 456.184 540.329 453.123 539.049 451.301C537.769 449.479 534.476 449.586 531.696 451.54C528.915 453.494 527.699 456.555 528.979 458.377Z" fill="#1D2815" stroke="white" stroke-miterlimit="10"/>
<path d="M496.047 482.5H419.397C418.143 482.5 417.126 483.517 417.126 484.772C417.126 486.026 418.142 487.043 419.397 487.043H496.047C497.301 487.043 498.318 486.027 498.318 484.772C498.317 483.518 497.301 482.5 496.047 482.5Z" fill="#1D2815"/>
<path d="M449.444 472.77C449.444 472.77 467.33 479.619 468.092 482.474L449.444 472.77Z" fill="white"/>
<path d="M449.444 472.77C449.444 472.77 467.33 479.619 468.092 482.474" stroke="#1D2815" stroke-miterlimit="10" stroke-linecap="round"/>
<path d="M365.193 438.604C365.193 438.604 360.034 445.536 364.226 457.628L356.171 457.455C356.171 457.455 357.686 445.002 365.193 438.604Z" fill="#1D2815"/>
<path d="M441.319 466.645C441.319 466.645 436.145 450.959 439.389 438.572C439.389 438.572 448.539 454.515 452.373 463.952C456.207 473.389 463.514 478.063 463.514 478.063L449.163 472.483C449.163 472.483 445.742 467.235 441.319 466.645Z" fill="#1D2815"/>
<path d="M379.241 388.417C379.241 388.417 385.271 409.094 403.734 407.355C420.99 405.73 416.071 392.294 416.071 392.294L379.241 388.417Z" fill="#90C865"/>
<path d="M412.348 384.458C411.452 386.86 410.488 392.183 410.744 395.049C410.857 396.299 408.799 400.863 400.544 398.886C390.591 396.502 388.805 388.495 388.805 388.495C393.706 379.406 395.032 366.168 395.032 366.168" fill="white"/>
<path d="M412.348 384.458C411.452 386.86 410.488 392.183 410.744 395.049C410.857 396.299 408.799 400.863 400.544 398.886C390.591 396.502 388.805 388.495 388.805 388.495C393.706 379.406 395.032 366.168 395.032 366.168" stroke="#1D2815" stroke-miterlimit="10" stroke-linecap="round"/>
<path d="M428.781 355.009C428.781 355.009 434.16 341.946 422.827 334.456C418.811 331.801 410.095 330.956 401.914 332.721C387 335.937 373.863 347.83 394.205 373.258L428.781 355.009Z" fill="#1D2815"/>
<path d="M418.33 352.656C423.617 351.54 429.314 352.264 427.997 358.343C427.147 362.265 427.272 363.313 426.583 369.44C425.108 382.545 414.174 387.941 404.073 380.384C393.805 372.699 393.084 366.673 398.808 352.637C403.011 342.331 407.705 348.293 407.705 348.293C407.705 348.293 410.283 354.355 418.33 352.656Z" fill="white"/>
<path d="M425.171 362.545C424.817 363.493 424.149 364.119 423.679 363.944C423.209 363.768 423.116 362.858 423.469 361.91C423.823 360.962 424.491 360.336 424.96 360.512C425.431 360.687 425.525 361.597 425.171 362.545Z" fill="#1D2815"/>
<path d="M412.851 360.204C412.738 361.197 412.233 361.995 411.723 361.988C411.212 361.981 410.89 361.171 411.003 360.178C411.115 359.185 411.62 358.386 412.131 358.393C412.641 358.4 412.963 359.211 412.851 360.204Z" fill="#1D2815"/>
<path d="M412.461 383.866C412.461 383.866 406.757 382.977 402.039 377.91C397.32 372.842 401.25 387.01 410.734 390.03C410.734 390.03 410.634 387.682 412.461 383.866Z" fill="#1D2815"/>
<path d="M423.187 356.577C423.187 356.577 426.047 357.102 427.643 358.882C429.237 360.662 428.388 350.807 423.187 356.577Z" fill="#1D2815"/>
<path d="M415.358 356.175C415.358 356.175 410.089 355.988 408.685 356.864C407.282 357.739 412.981 349.248 415.358 356.175Z" fill="#1D2815"/>
<path d="M399.22 361.113C399.22 361.113 397.402 356.666 393.985 356.115C390.569 355.563 389.423 366.004 396.748 366.566C404.074 367.129 399.22 361.113 399.22 361.113Z" fill="white"/>
<path d="M396.435 361.584C396.435 361.584 396.398 358.836 393.966 358.232" stroke="#1D2815" stroke-miterlimit="10" stroke-linecap="round"/>
<path d="M396.886 357.723C396.886 357.723 404.856 356.42 409.045 345.201C413.235 333.983 391.84 340.653 396.886 357.723Z" fill="#1D2815"/>
<path d="M428.23 355.103C428.567 377.297 419.568 386.765 410.625 383.687" stroke="#1D2815" stroke-miterlimit="10" stroke-linecap="round"/>
<path d="M411.128 372.864C411.128 372.864 409.478 375.525 413.419 377.259" stroke="#1D2815" stroke-miterlimit="10" stroke-linecap="round"/>
<path d="M411.422 364.695C415.069 364.695 418.026 362.944 418.026 360.785C418.026 358.625 415.069 356.874 411.422 356.874C407.775 356.874 404.818 358.625 404.818 360.785C404.818 362.944 407.775 364.695 411.422 364.695Z" stroke="#1D2815" stroke-miterlimit="10" stroke-linecap="round"/>
<path d="M426.542 367.128C430.19 367.128 433.146 365.377 433.146 363.218C433.146 361.059 430.19 359.308 426.542 359.308C422.895 359.308 419.939 361.059 419.939 363.218C419.939 365.377 422.895 367.128 426.542 367.128Z" stroke="#1D2815" stroke-miterlimit="10" stroke-linecap="round"/>
<path d="M424.586 348.41C424.586 348.41 426.556 359.583 433.615 355.392C440.674 351.2 431.205 346.203 431.205 346.203C431.205 346.203 447.088 341.57 437.823 333.187C428.558 324.804 408.482 325.245 396.789 331.863C396.789 331.863 394.239 332.888 391.869 335.465C390.631 336.811 392.353 336.206 389.35 337.366C374.753 343.01 389.601 366.7 389.601 366.7C389.601 366.7 384.435 345.1 400.319 340.467C416.203 335.835 424.586 348.41 424.586 348.41Z" fill="#1D2815"/>
<path d="M390.639 359.45C390.639 359.45 389.668 354.73 392.583 354.59C395.499 354.452 404.818 360.784 404.818 360.784" stroke="#1D2815" stroke-miterlimit="10" stroke-linecap="round"/>
<path d="M418.026 360.785L420.353 361.533" stroke="#1D2815" stroke-miterlimit="10" stroke-linecap="round"/>
<path d="M392.805 337.525C392.805 337.525 375.997 330.01 387.055 360.329" stroke="#1D2815" stroke-miterlimit="10" stroke-linecap="round"/>
<path d="M439.161 336.576C439.161 336.576 445.464 347.462 429.993 346.89" stroke="#1D2815" stroke-miterlimit="10" stroke-linecap="round"/>
<path d="M394.638 664.902C394.638 664.902 431.515 663.035 427.315 646.696C423.114 630.358 403.36 629.364 417.73 612.16C450.58 572.832 443.429 546.505 424.461 549.279C422.344 549.589 398.908 552.6 382.583 540.68C362.348 525.905 367.245 498.937 367.245 498.937" stroke="white" stroke-miterlimit="10"/>
<path d="M820.933 496.753H293.477C290.729 496.753 288.501 494.524 288.501 491.777C288.501 489.029 290.729 486.8 293.477 486.8H820.933C823.681 486.8 825.909 489.029 825.909 491.777C825.909 494.524 823.681 496.753 820.933 496.753Z" fill="white" stroke="#1D2815" stroke-miterlimit="10" stroke-linecap="round"/>
<path d="M319.155 496.902V767.466" stroke="#1D2815" stroke-miterlimit="10" stroke-linecap="round"/>
<path d="M67.9289 776.767C67.9289 776.767 71.423 734.6 42.7109 688.435C13.9988 642.27 63.9882 604.493 81.44 651.221C98.8927 697.948 97.7664 745.802 97.7664 745.802C97.7664 745.802 81.44 806.041 67.9289 776.767Z" fill="#E3FECE"/>
<path d="M83.3325 796.377C83.3325 793.428 77.4345 707.165 115.774 685.783C154.113 664.401 110.613 774.996 94.3921 791.216C78.171 807.437 83.3325 796.377 83.3325 796.377Z" fill="white" stroke="#1D2815" stroke-miterlimit="10" stroke-linecap="round"/>
<path d="M119.509 767.878H59.494V844.261H119.509V767.878Z" fill="white" stroke="#1D2815" stroke-miterlimit="10" stroke-linecap="round"/>
<path d="M113.006 708.012C113.006 708.012 95.0213 739.622 93.931 767.418L113.006 708.012Z" fill="white"/>
<path d="M113.006 708.012C113.006 708.012 95.0213 739.622 93.931 767.418" stroke="#1D2815" stroke-miterlimit="10" stroke-linecap="round"/>
<path d="M128.128 713.348C128.128 713.348 110.808 722.141 113.207 728.269C115.605 734.398 123.598 731.2 123.598 731.2" stroke="#1D2815" stroke-miterlimit="10" stroke-linecap="round"/>
<path d="M85.7646 743.572C85.7646 743.572 88.0686 748.372 91.3331 745.876C94.5977 743.379 88.6448 730.514 88.6448 730.514" stroke="#1D2815" stroke-miterlimit="10" stroke-linecap="round"/>
<path d="M114.075 767.41C114.075 767.41 121.458 736.324 148.474 720.114" stroke="#1D2815" stroke-miterlimit="10" stroke-linecap="round"/>
<path d="M174.771 698.861C173.782 699.297 143.792 716.152 148.475 720.834C153.159 725.517 187.379 720.474 188.819 714.71C190.26 708.946 172.78 707.561 173.861 707.561C174.941 707.561 187.019 693.458 174.771 698.861Z" fill="#90C865"/>
<path d="M129.839 829.119H47.5654V849.371H129.839V829.119Z" fill="#1D2815"/>
<path d="M546.649 801.088C546.649 801.088 554.607 816.391 535.019 824.655C515.431 832.919 520.808 837.856 520.808 837.856C520.808 837.856 560.508 844.451 588.351 838.345C588.351 838.345 626.942 822.714 611.066 797.312C595.19 771.91 546.649 801.088 546.649 801.088Z" fill="white"/>
<path d="M670.204 506.038C670.204 506.038 658.797 537.091 691.434 548.181" stroke="white" stroke-miterlimit="10" stroke-linecap="round"/>
<path d="M716.15 503.503C716.15 503.503 704.426 526.951 733.26 545.328" stroke="white" stroke-miterlimit="10" stroke-linecap="round"/>
<path d="M664.989 517.85H786.772C804.352 517.85 818.603 532.101 818.603 549.681V713.227C818.603 734.879 801.051 752.431 779.399 752.431H632.273C632.273 752.431 633.959 614.349 633.16 550.057C632.941 532.327 647.257 517.85 664.989 517.85Z" fill="#1D2815"/>
<path d="M790.672 532.224C794.466 538.588 797.922 546.461 801.038 556.148C803.719 564.456 809.365 584.112 808.176 591.363C801.699 631.147 748.36 626.453 748.36 626.453C748.36 626.453 779.663 680.015 639.823 629.637C639.823 629.637 654.702 621.649 661.519 604.788L599.68 602.126C599.68 602.126 598.396 591.854 629.873 582.847C647.149 577.911 652.431 572.72 657.791 559.689C659.995 554.334 661.4 548.696 662.289 542.975C663.31 536.4 664.762 531.266 666.787 527.089" fill="white"/>
<path d="M790.672 532.224C794.466 538.588 797.922 546.461 801.038 556.148C803.719 564.456 809.365 584.112 808.176 591.363C801.699 631.147 748.36 626.453 748.36 626.453C748.36 626.453 779.663 680.015 639.823 629.637C639.823 629.637 654.702 621.649 661.519 604.788L599.68 602.126C599.68 602.126 598.396 591.854 629.873 582.847C647.149 577.911 652.431 572.72 657.791 559.689C659.995 554.334 661.4 548.696 662.289 542.975C663.31 536.4 664.762 531.266 666.787 527.089" stroke="#1D2815" stroke-miterlimit="10" stroke-linecap="round"/>
<path d="M614.081 799.762C614.078 799.684 614.074 799.592 614.07 799.488C614.053 799.07 614.027 798.454 613.987 797.658C613.909 796.068 613.782 793.762 613.584 790.907C613.189 785.195 612.513 777.283 611.393 768.483C609.149 750.863 605.13 729.752 598.039 715.59L598.486 715.366L598.039 715.589C596.643 712.799 598.696 709.534 601.798 709.502M614.081 799.762L601.798 709.502M614.081 799.762C596.641 806.15 580.112 807.568 567.915 807.383C561.778 807.29 556.741 806.79 553.24 806.315C551.49 806.077 550.124 805.846 549.197 805.674C548.734 805.588 548.38 805.517 548.143 805.467C548.109 805.46 548.078 805.454 548.049 805.447C548.004 805.329 547.943 805.169 547.868 804.97C547.688 804.491 547.424 803.784 547.088 802.871C546.416 801.047 545.457 798.402 544.311 795.126C542.018 788.572 538.977 779.491 535.981 769.379C529.982 749.133 524.192 724.837 524.913 708.422C526.005 683.576 540.089 666.043 555.309 654.248C564.67 646.995 578.286 641.038 592.564 636.851C606.837 632.665 621.724 630.261 633.6 630.085C652.608 629.804 667.427 632.201 677.488 634.666C682.518 635.898 686.359 637.147 688.939 638.086C690.229 638.556 691.204 638.948 691.854 639.222C692.121 639.335 692.334 639.427 692.491 639.497M614.081 799.762L692.491 639.497M601.798 709.502C612.785 709.388 636.049 708.672 656.311 704.93C666.447 703.057 675.789 700.435 682.463 696.776C689.146 693.112 693.008 688.498 692.541 682.669C691.381 668.161 691.381 657.283 691.671 650.027C691.816 646.399 692.034 643.677 692.216 641.859C692.307 640.95 692.389 640.268 692.449 639.811C692.465 639.691 692.479 639.586 692.491 639.497M601.798 709.502L692.491 639.497" fill="white" stroke="black"/>
<path d="M614.825 799.872C614.825 799.872 615.733 806.791 617.674 815.966C620.332 828.529 620.573 835.051 620.573 835.051C620.573 835.051 558.764 845.95 518.829 837.63C518.829 837.63 520.754 828.51 540.852 821.542C549.013 818.713 547.892 806.519 547.892 806.519" stroke="#1D2815" stroke-miterlimit="10" stroke-linecap="round"/>
<path d="M620.175 830.799C620.175 830.799 565.154 841.251 521.04 834.148" stroke="#1D2815" stroke-miterlimit="10" stroke-linecap="round"/>
<path d="M752.08 569.357C752.08 569.357 759.163 576.912 762.905 591.455L752.08 569.357Z" fill="white"/>
<path d="M752.08 569.357C752.08 569.357 759.163 576.912 762.905 591.455" stroke="#1D2815" stroke-miterlimit="10" stroke-linecap="round"/>
<path d="M778.041 834.627H785.959V740.747H766.165L778.041 834.627Z" fill="#1D2815"/>
<path d="M677.26 802.257C677.26 802.257 678.167 809.176 680.108 818.351C682.766 830.914 683.007 837.436 683.007 837.436C683.007 837.436 621.199 848.335 581.263 840.015C581.263 840.015 583.188 830.895 603.287 823.927C611.447 821.098 610.326 808.904 610.326 808.904" fill="white"/>
<path d="M677.26 802.257C677.26 802.257 678.167 809.176 680.108 818.351C682.766 830.914 683.007 837.436 683.007 837.436C683.007 837.436 621.199 848.335 581.263 840.015C581.263 840.015 583.188 830.895 603.287 823.927C611.447 821.098 610.326 808.904 610.326 808.904" stroke="#1D2815" stroke-miterlimit="10" stroke-linecap="round"/>
<path d="M676.505 801.873C676.509 801.977 676.512 802.069 676.515 802.147C659.075 808.535 642.546 809.953 630.349 809.768C624.212 809.675 619.175 809.175 615.674 808.7C613.924 808.462 612.558 808.231 611.632 808.059C611.168 807.973 610.815 807.902 610.578 807.852C610.544 807.845 610.512 807.839 610.483 807.832C610.438 807.714 610.378 807.554 610.303 807.355C610.123 806.876 609.858 806.169 609.522 805.256C608.85 803.432 607.891 800.787 606.745 797.511C604.453 790.957 601.411 781.876 598.415 771.764C592.417 751.518 586.626 727.222 587.347 710.807C588.44 685.961 602.522 668.428 617.743 656.633L617.437 656.238L617.743 656.633C627.104 649.38 640.721 643.423 654.999 639.236C669.271 635.05 684.158 632.646 696.034 632.47C715.042 632.189 729.862 634.586 739.922 637.051C744.953 638.283 748.794 639.532 751.373 640.471C752.663 640.941 753.638 641.333 754.289 641.607C754.556 641.72 754.768 641.812 754.925 641.882C754.913 641.971 754.899 642.076 754.883 642.196C754.824 642.653 754.742 643.335 754.651 644.244C754.469 646.062 754.251 648.784 754.105 652.412C753.815 659.668 753.815 670.546 754.976 685.053C755.442 690.883 751.581 695.496 744.897 699.16C738.224 702.819 728.882 705.441 718.745 707.314C698.483 711.056 675.219 711.772 664.232 711.887C661.131 711.919 659.077 715.184 660.474 717.974L660.921 717.751L660.474 717.975C667.564 732.137 671.584 753.248 673.827 770.868C674.948 779.668 675.623 787.58 676.018 793.292C676.216 796.147 676.344 798.453 676.422 800.043C676.461 800.839 676.488 801.455 676.505 801.873Z" fill="white" stroke="black"/>
<path d="M607.46 802.764C607.46 802.764 563.93 714.591 586.284 677.772C607.163 643.381 673.51 633.94 673.51 633.94" stroke="#1D2815" stroke-miterlimit="10" stroke-linecap="round"/>
<path d="M715.538 672.137C715.538 672.137 690.002 692.415 645.578 695.088C636.669 695.623 630.689 704.44 633.548 712.895C641.067 735.135 653.329 774.401 658.474 807.845" stroke="#1D2815" stroke-miterlimit="10" stroke-linecap="round"/>
<path d="M682.609 833.184C682.609 833.184 627.588 843.636 583.474 836.533" stroke="#1D2815" stroke-miterlimit="10" stroke-linecap="round"/>
<path d="M736.205 607.61H807.641V731.993H702.977V640.837C702.977 622.487 717.853 607.61 736.205 607.61Z" fill="#1D2815"/>
<path d="M573.574 805.914C574.324 784.89 542.818 792.829 542.818 792.829C542.818 792.829 544.298 799.811 545.998 806.155C547.978 813.538 548.396 818.144 540.852 821.542C540.852 821.542 572.514 835.635 573.574 805.914Z" fill="#1D2815"/>
<path d="M571.22 821.689C570.795 821.689 559.332 812.423 545.192 813.979" stroke="white" stroke-miterlimit="10"/>
<path d="M541.897 819.661C541.897 819.661 554.581 817.672 563.634 825.645" stroke="white" stroke-miterlimit="10"/>
<path d="M601.049 824.696C601.049 824.696 611.151 831.911 621.665 826.758C632.179 821.604 632.797 801.607 626.612 796.865C620.428 792.123 603.935 794.391 603.935 794.391C603.935 794.391 607.871 810.374 608.331 817.735C608.576 821.642 601.049 824.696 601.049 824.696Z" fill="#1D2815"/>
<path d="M629.004 825.576C629.004 825.576 618.097 817.17 607.591 817.971" stroke="white" stroke-miterlimit="10"/>
<path d="M623.966 830.074C623.966 830.074 613.06 821.668 602.553 822.469" stroke="white" stroke-miterlimit="10"/>
<path d="M681.998 548.411C681.998 548.411 675.47 588.176 660.336 601.529" stroke="#1D2815" stroke-miterlimit="10" stroke-linecap="round"/>
<path d="M789.245 532.724C752.834 535.941 722.423 534.732 701.072 532.708C690.313 531.688 681.856 530.462 676.09 529.491C673.207 529.005 670.996 528.584 669.508 528.284C668.764 528.134 668.201 528.014 667.824 527.932C667.817 527.931 667.81 527.929 667.803 527.928C667.807 527.918 667.812 527.907 667.816 527.897L667.819 527.89C667.866 527.784 667.918 527.663 667.961 527.55C667.994 527.464 668.029 527.362 668.051 527.256C670.917 521.302 674.167 517.364 679.698 513.997C689.602 507.98 698.321 506.949 706.034 507.265C709.142 507.392 712.08 507.737 714.882 508.066C715.57 508.147 716.249 508.227 716.92 508.302C720.315 508.683 723.517 508.952 726.508 508.629L726.509 508.629C739.768 507.194 751.555 506.699 761.999 509.856C772.325 512.978 781.387 519.686 789.245 532.724Z" fill="white" stroke="black"/>
<path d="M694.24 464.277C688.34 466.497 681.422 464.609 683.391 471.592C684.662 476.099 684.592 477.327 685.834 484.412C688.491 499.565 701.61 505.064 712.828 495.538C724.233 485.854 724.64 478.785 716.967 462.853C711.334 451.156 706.297 458.433 706.297 458.433C706.297 458.433 701.592 461.513 694.24 464.277Z" fill="#E3FECE"/>
<path d="M687.017 477.883C687.497 478.962 688.32 479.642 688.855 479.405C689.389 479.167 689.433 478.099 688.953 477.021C688.473 475.943 687.65 475.262 687.116 475.5C686.581 475.737 686.537 476.805 687.017 477.883Z" fill="#1D2815"/>
<path d="M698.631 474.33C698.833 475.478 699.479 476.372 700.072 476.327C700.666 476.282 700.983 475.315 700.781 474.168C700.578 473.02 699.932 472.126 699.339 472.171C698.745 472.215 698.428 473.182 698.631 474.33Z" fill="#1D2815"/>
<path d="M703.313 500.195C703.313 500.195 706.134 504.299 706.235 509.869C706.326 514.927 710.029 519.27 715.068 519.708C715.159 519.716 715.25 519.723 715.343 519.731C720.458 520.114 734.678 517.773 732.905 507.439C732.905 507.439 723.012 487.582 721.266 477.831C721.266 477.831 704.248 498.408 703.313 500.195Z" fill="#E3FECE"/>
<path d="M703.313 500.195C703.313 500.195 709.891 498.75 715.021 492.511C720.151 486.272 716.592 503.05 705.766 507.248C705.766 507.248 705.713 504.508 703.313 500.195Z" fill="#1D2815"/>
<path d="M696.05 469.901C696.05 469.901 703.709 468.918 704.606 467.808C705.818 466.307 695.136 461.642 696.05 469.901Z" fill="#1D2815"/>
<path d="M690.197 471.666C690.197 471.666 683.225 474.986 681.871 474.538C680.04 473.931 686.496 464.228 690.197 471.666Z" fill="#1D2815"/>
<path d="M717.096 472.753C717.096 472.753 718.894 467.445 722.832 466.558C726.771 465.67 728.855 477.745 720.365 478.925C711.875 480.106 717.096 472.753 717.096 472.753Z" fill="#E3FECE"/>
<path d="M720.373 473.101C720.373 473.101 720.219 469.9 723.008 469.021" stroke="#1D2815" stroke-miterlimit="10" stroke-linecap="round"/>
<path d="M721.621 479.007C721.621 479.007 726.839 497.977 733.197 508.207" stroke="#1D2815" stroke-miterlimit="10" stroke-linecap="round"/>
<path d="M684.962 480.841C688.922 495.664 695.244 504.08 705.436 499.855" stroke="#1D2815" stroke-miterlimit="10" stroke-linecap="round"/>
<path d="M703.511 490.228C703.511 490.228 700.029 493.467 697.615 492.15" stroke="#1D2815" stroke-miterlimit="10" stroke-linecap="round"/>
<path d="M710.548 454.664C710.548 454.664 694.643 471.169 676.14 468.785L679.392 465.733L674.778 462.576C674.778 462.576 678.962 462.517 684.11 459.222C689.258 455.927 700.222 447.235 709.317 451.003C718.413 454.771 710.548 454.664 710.548 454.664Z" fill="#1D2815"/>
<path d="M706.65 456.76C706.65 456.76 709.564 463.571 713.756 464.685C717.949 465.799 718.449 469.868 718.449 469.868C718.449 469.868 720.601 467.267 722.138 466.703C722.138 466.703 719.582 446.708 707.198 449.959L706.65 456.76Z" fill="#1D2815"/>
<path d="M703.403 710.788V726.018" stroke="white" stroke-miterlimit="10" stroke-linecap="round"/>
<path d="M722.376 464.256C722.376 464.256 711.197 458.581 697.955 459.785C684.712 460.989 680.241 460.473 680.241 460.473C680.241 460.473 677.318 454.626 679.037 448.951C679.037 448.951 690.559 441.04 694.859 440.18C699.159 439.32 706.382 438.804 714.809 443.791C723.236 448.778 722.376 464.256 722.376 464.256Z" fill="#90C865"/>
<path d="M684.633 455.888C683.665 455.501 673.615 462.81 662.771 462.615C651.927 462.422 670.516 465.52 684.072 465.52C697.627 465.52 699.854 449.738 699.854 449.738L684.633 455.888Z" fill="#90C865"/>
<path d="M690.881 453.389C690.881 454.845 689.731 456.027 688.312 456.027C686.893 456.027 685.743 454.845 685.743 453.389C685.743 451.932 686.893 450.751 688.312 450.751C689.731 450.751 690.881 451.932 690.881 453.389Z" fill="white" stroke="#1D2815" stroke-miterlimit="10" stroke-linecap="round"/>
<path d="M708.521 460.094C708.521 460.094 706.585 469.736 711.326 467.83C711.326 467.83 713.139 474.794 718.497 469.795C718.497 469.795 719.294 461.565 708.521 460.094Z" fill="#1D2815"/>
<path d="M761.117 585.747C762.451 585.214 725.68 597.205 700.228 615.385" stroke="#1D2815" stroke-miterlimit="10" stroke-linecap="round"/>
<path d="M691.745 634.232H597.087C595.57 634.232 594.29 633.102 594.102 631.598L586.796 573.152C586.572 571.357 587.971 569.771 589.78 569.771H684.439C685.956 569.771 687.236 570.901 687.424 572.405L694.73 630.852C694.954 632.647 693.555 634.232 691.745 634.232Z" fill="#1D2815"/>
<path d="M643.361 606.729C642.129 608.481 638.962 608.379 636.288 606.499C633.613 604.619 632.442 601.675 633.674 599.922C634.906 598.17 638.072 598.273 640.747 600.153C643.422 602.032 644.591 604.977 643.361 606.729Z" fill="#1D2815" stroke="white" stroke-miterlimit="10"/>
<path d="M675.038 629.934H748.766C749.973 629.934 750.95 630.912 750.95 632.118C750.95 633.325 749.973 634.302 748.766 634.302H675.038C673.832 634.302 672.854 633.325 672.854 632.118C672.854 630.912 673.832 629.934 675.038 629.934Z" fill="#1D2815"/>
<path d="M663.248 536.705C663.248 536.705 731.236 552.192 795.335 539.948" stroke="#1D2815" stroke-miterlimit="10" stroke-linecap="round"/>
<path d="M633.551 569.347H652.98" stroke="white" stroke-miterlimit="10" stroke-linecap="round"/>
</svg>
